<?xml version="1.0" encoding="UTF-8"?>
<svg width="1440" height="900" viewBox="0 0 1440 900" fill="none" xmlns="http://www.w3.org/2000/svg">
  <rect width="1440" height="900" rx="28" fill="#FBFAF6"/>
  <rect x="40" y="40" width="1360" height="820" rx="26" fill="#FBFAF6" stroke="#D7D2C4" stroke-width="2"/>
  <rect x="72" y="72" width="1296" height="176" rx="22" fill="#141510"/>
  <text x="110" y="144" fill="#F6F5F1" font-size="46" font-family="Arial, sans-serif" font-weight="700">Как Европа переводит GPAI в практический режим</text>
  <text x="110" y="194" fill="#C8C9C1" font-size="24" font-family="Arial, sans-serif">От общего закона к операционным обязательствам поставщика</text>
  <path d="M1120 110C1198 72 1292 82 1342 144C1384 198 1376 282 1324 330" stroke="#C6F24B" stroke-width="3" stroke-linecap="round"/>
  <circle cx="1298" cy="154" r="18" fill="#C6F24B"/>

  <rect x="110" y="300" width="262" height="230" rx="22" fill="#F4F0E6" stroke="#D9DBD1"/>
  <rect x="430" y="300" width="262" height="230" rx="22" fill="#F8F9F5" stroke="#D9DBD1"/>
  <rect x="750" y="300" width="262" height="230" rx="22" fill="#F4F0E6" stroke="#D9DBD1"/>
  <rect x="1070" y="300" width="262" height="230" rx="22" fill="#C6F24B" stroke="#A9D632"/>
  <text x="150" y="360" fill="#141510" font-size="28" font-family="Arial, sans-serif" font-weight="700">AI Act</text>
  <text x="150" y="404" fill="#555A50" font-size="21" font-family="Arial, sans-serif">общая рамка</text>
  <text x="470" y="360" fill="#141510" font-size="28" font-family="Arial, sans-serif" font-weight="700">Кодекс GPAI</text>
  <text x="470" y="404" fill="#555A50" font-size="21" font-family="Arial, sans-serif">подробные ожидания</text>
  <text x="790" y="360" fill="#141510" font-size="28" font-family="Arial, sans-serif" font-weight="700">Практика</text>
  <text x="790" y="404" fill="#555A50" font-size="21" font-family="Arial, sans-serif">отчётность, риски,</text>
  <text x="790" y="434" fill="#555A50" font-size="21" font-family="Arial, sans-serif">авторское право</text>
  <text x="1110" y="360" fill="#141510" font-size="28" font-family="Arial, sans-serif" font-weight="700">Допуск</text>
  <text x="1110" y="404" fill="#141510" font-size="21" font-family="Arial, sans-serif">доверие рынка и</text>
  <text x="1110" y="434" fill="#141510" font-size="21" font-family="Arial, sans-serif">право работать в ЕС</text>
  <path d="M372 414H430" stroke="#A9D632" stroke-width="8" stroke-linecap="round"/>
  <path d="M692 414H750" stroke="#A9D632" stroke-width="8" stroke-linecap="round"/>
  <path d="M1012 414H1070" stroke="#A9D632" stroke-width="8" stroke-linecap="round"/>
  <text x="120" y="622" fill="#555A50" font-size="22" font-family="Arial, sans-serif">Смысл кодекса не в новом лозунге, а в переводе абстрактного закона на язык ежедневной комплаенс-работы.</text>

</svg>
